<?xml version="1.0" standalone="no"?>
<svg xmlns="http://www.w3.org/2000/svg" viewBox="0 0 1440 320">
    <path fill="#dedaed" fill-opacity="1" d="M0,96L40,90.7C80,85,160,75,240,106.7C320,139,400,213,480,250.7C560,288,640,288,720,256C800,224,880,160,960,128C1040,96,1120,96,1200,128C1280,160,1360,224,1400,256L1440,288L1440,320L1400,320C1360,320,1280,320,1200,320C1120,320,1040,320,960,320C880,320,800,320,720,320C640,320,560,320,480,320C400,320,320,320,240,320C160,320,80,320,40,320L0,320Z"></path>
</svg>